<?xml version="1.0" standalone="no"?>
<!DOCTYPE svg PUBLIC "-//W3C//DTD SVG 20010904//EN"
 "http://www.w3.org/TR/2001/REC-SVG-20010904/DTD/svg10.dtd">
<svg version="1.0" xmlns="http://www.w3.org/2000/svg"
 width="1184.000000pt" height="1184.000000pt" viewBox="0 0 1184.000000 1184.000000"
 preserveAspectRatio="xMidYMid meet">
<metadata>
Created by potrace 1.14, written by Peter Selinger 2001-2017
</metadata>
<g transform="translate(0.000000,1184.000000) scale(0.100000,-0.100000)"
fill="#000000" stroke="none">
<path d="M6075 10347 c-27 -14 -86 -32 -130 -42 -129 -27 -227 -61 -283 -96
l-53 -33 -55 27 c-88 44 -167 31 -247 -39 -14 -12 -45 -34 -71 -49 -25 -15
-49 -33 -54 -40 -5 -10 -22 -4 -71 25 -90 54 -175 76 -243 62 -29 -6 -60 -13
-68 -16 -10 -4 -21 5 -34 28 -25 46 -104 90 -154 84 -30 -4 -45 2 -79 28 -42
32 -46 33 -118 29 -104 -7 -203 -49 -241 -104 -15 -21 -41 -31 -29 -11 3 5 -6
21 -20 36 -32 32 -88 31 -155 -1 -25 -12 -62 -25 -82 -28 -33 -5 -68 -18 -135
-49 -12 -6 -36 -26 -54 -44 -31 -32 -36 -51 -38 -131 -1 -20 -6 -23 -44 -23
-82 0 -191 -52 -268 -129 -64 -65 -79 -90 -79 -133 0 -33 -3 -38 -27 -44 -87
-18 -155 -59 -179 -106 -19 -36 -18 -208 2 -280 12 -46 11 -49 -4 -42 -28 12
-143 13 -202 2 -62 -11 -135 -50 -152 -82 -7 -11 -12 -23 -11 -26 1 -3 -19 -3
-43 -1 -69 5 -110 -7 -144 -41 -37 -37 -53 -72 -45 -102 5 -16 -2 -12 -29 16
-19 20 -42 40 -51 45 -31 18 -76 1 -123 -43 -25 -24 -48 -44 -51 -44 -2 0 -14
9 -26 20 -12 12 -40 23 -61 25 -33 4 -45 0 -77 -26 -42 -35 -97 -110 -97 -133
0 -11 -10 -16 -31 -16 -45 0 -146 -57 -203 -114 -47 -49 -79 -103 -69 -118 4
-8 -4 -12 -49 -22 -33 -7 -97 -99 -122 -176 -16 -49 -23 -124 -14 -159 2 -8
-4 -15 -13 -16 -26 -5 -65 -33 -77 -58 -8 -14 -11 -58 -9 -119 2 -54 0 -98 -5
-98 -4 0 -17 -9 -27 -19 -16 -16 -18 -30 -15 -102 5 -80 6 -86 41 -121 20 -20
56 -50 80 -65 l44 -28 -28 -6 c-43 -9 -70 -26 -89 -59 -13 -21 -28 -31 -57
-35 -22 -4 -55 -21 -75 -39 -138 -118 -147 -133 -124 -210 10 -33 18 -114 21
-231 l6 -180 -31 -32 c-61 -63 -87 -111 -92 -168 -10 -127 65 -183 187 -140
39 13 43 13 61 -5 11 -11 30 -21 43 -21 12 -1 27 -2 32 -4 6 -1 15 -3 20 -4 6
-1 17 -6 25 -11 12 -7 6 -16 -29 -46 -24 -21 -63 -68 -87 -106 -24 -37 -59
-84 -77 -105 -46 -51 -57 -75 -57 -121 0 -34 6 -45 40 -76 22 -20 44 -36 48
-36 17 0 30 -48 26 -97 -4 -41 0 -56 21 -87 23 -33 37 -99 37 -166 0 -69 44
-171 92 -213 25 -23 99 -18 124 6 14 15 18 13 45 -23 29 -40 29 -40 98 -40 40
0 81 6 97 14 26 13 28 12 51 -18 14 -18 46 -47 73 -65 l48 -33 102 4 c110 4
144 16 206 69 41 36 57 36 92 -1 30 -32 38 -51 68 -150 27 -93 45 -103 179
-107 91 -2 108 -5 117 -20 32 -59 235 -222 280 -224 11 -1 31 -3 44 -4 12 -1
35 7 50 19 23 18 40 21 132 21 88 1 112 4 146 22 54 29 104 71 104 89 0 19 39
104 58 127 25 29 81 22 149 -21 61 -36 238 -194 247 -219 3 -7 1 -26 -5 -41
-6 -15 -13 -38 -15 -52 -10 -59 -17 -72 -59 -115 -25 -25 -47 -45 -49 -45 -2
0 -23 7 -47 16 -67 24 -77 24 -100 5 -40 -32 -20 -61 72 -105 133 -62 234 -53
336 30 25 21 54 39 64 39 10 1 44 -18 76 -42 32 -24 61 -43 64 -43 4 0 12 -13
18 -30 5 -16 14 -30 20 -30 10 0 28 -48 37 -95 3 -15 20 -59 40 -98 24 -49 39
-99 50 -166 15 -94 24 -130 69 -261 29 -83 53 -230 38 -230 -2 0 -20 11 -41
24 -58 36 -90 41 -309 47 l-92 2 -45 -37 c-25 -20 -47 -45 -51 -56 -3 -11 -17
-20 -33 -22 -19 -2 -32 -13 -44 -38 -22 -43 -61 -99 -108 -153 -40 -46 -99
-76 -149 -77 -61 0 -170 -62 -230 -130 -75 -86 -96 -147 -87 -262 6 -92 34
-165 100 -261 14 -21 26 -42 26 -47 0 -5 13 -24 28 -42 16 -18 32 -49 35 -68
3 -19 8 -44 10 -55 11 -52 19 -110 19 -143 0 -44 19 -93 50 -132 13 -15 30
-38 38 -51 8 -13 46 -55 84 -92 58 -58 74 -68 97 -65 22 4 29 0 31 -16 3 -21
4 -21 16 1 7 13 15 42 18 65 6 43 53 149 80 179 8 8 14 20 14 25 1 14 61 76
132 135 120 100 170 153 194 207 29 65 30 96 3 147 -36 67 -29 155 12 155 5 0
23 21 39 47 23 36 30 58 30 99 0 48 -4 57 -62 130 -35 44 -65 81 -68 84 -29
28 -69 83 -65 89 8 14 86 22 209 22 132 -1 185 -17 242 -72 17 -17 41 -31 53
-32 24 -1 23 13 21 -367 0 -118 4 -201 14 -254 14 -68 21 -126 42 -326 2 -19
8 -118 13 -220 6 -102 15 -205 21 -230 6 -25 15 -74 20 -110 25 -172 35 -213
89 -357 33 -92 96 -159 189 -205 61 -30 75 -33 160 -33 89 0 95 1 116 26 l23
27 54 -70 c94 -122 113 -143 164 -185 80 -65 103 -73 202 -73 90 1 121 10 187
54 39 27 169 29 250 4 64 -20 109 -19 142 2 24 15 54 70 54 98 0 15 8 17 57
14 32 -1 68 -9 80 -17 47 -31 122 -53 198 -58 64 -4 86 -2 115 13 46 23 92 76
125 140 47 92 55 175 60 559 3 195 8 358 13 363 4 4 6 -9 4 -29 -3 -27 0 -40
14 -50 53 -38 96 4 114 112 8 44 14 82 15 85 0 3 4 22 9 43 10 51 60 131 90
145 32 14 42 58 19 84 -14 15 -25 18 -53 14 -42 -8 -47 -8 -130 -2 l-65 4 1
38 c6 146 43 362 109 634 13 52 27 118 30 145 4 28 9 61 11 75 2 14 11 72 20
129 19 127 23 138 65 180 46 45 89 62 162 63 34 1 75 6 91 13 28 12 30 11 51
-29 30 -56 83 -85 174 -91 l71 -5 46 42 c25 24 54 61 64 83 10 22 31 70 48
106 42 94 136 171 310 255 65 32 88 62 75 101 -11 32 -52 47 -80 29 -10 -7
-29 -11 -43 -9 -35 5 -178 4 -220 -1 -73 -8 -119 -27 -143 -57 l-23 -30 -14
25 c-15 29 -57 46 -114 46 -53 0 -77 -17 -114 -84 -35 -60 -77 -96 -116 -96
-14 0 -55 -11 -91 -24 -36 -13 -65 -19 -65 -13 0 24 74 212 106 269 54 96 108
163 133 165 35 3 110 71 106 95 -3 12 5 32 18 48 20 24 25 25 43 14 11 -8 44
-15 74 -17 62 -4 103 14 141 65 13 17 34 42 45 55 23 27 38 55 107 203 24 52
55 106 68 119 l23 25 7 -33 c9 -45 111 -192 171 -246 41 -37 48 -49 48 -80 0
-30 7 -44 37 -71 22 -20 51 -36 72 -39 20 -3 60 -10 90 -15 30 -6 72 -10 93
-10 22 0 46 -7 54 -15 28 -27 102 -19 174 21 36 20 83 45 105 56 22 11 51 25
65 33 14 7 54 15 90 19 144 13 176 17 207 22 37 5 73 45 73 80 0 18 6 24 23
25 92 3 155 28 178 71 6 11 9 41 7 66 l-3 47 45 14 c25 8 47 17 50 20 4 5 50
28 129 65 29 13 60 62 67 103 10 63 26 84 80 109 61 28 77 51 71 100 -6 42 1
74 17 74 6 0 22 9 36 20 23 17 24 24 22 100 -1 45 -8 96 -15 113 -48 110 -48
117 -4 117 60 0 62 5 65 162 2 79 4 178 5 221 2 71 0 80 -21 95 -18 14 -22 28
-23 68 -1 28 4 68 11 89 19 59 9 176 -20 219 -31 44 -68 66 -106 61 -64 -9
-197 -15 -205 -9 -15 9 10 44 31 44 10 0 22 5 25 10 3 6 15 10 25 10 34 0 47
34 45 117 l-2 78 28 1 c135 6 159 28 153 141 -3 41 -9 94 -16 117 -6 22 -14
97 -17 166 -4 69 -12 134 -18 146 -13 23 -8 145 7 174 23 42 0 176 -46 276
-20 46 -39 69 -71 90 -41 28 -43 31 -43 81 0 47 -3 54 -34 80 -19 15 -62 38
-95 51 -57 22 -61 26 -61 56 0 57 -64 125 -120 126 -25 0 -25 1 -25 88 0 100
-15 134 -70 152 -39 13 -52 36 -25 45 10 3 23 19 28 34 11 32 -5 76 -52 145
l-26 39 41 35 c36 31 40 39 36 71 -7 59 -25 84 -85 122 -72 46 -140 68 -219
71 -37 2 -63 8 -63 14 0 6 -11 21 -25 34 -20 19 -36 23 -90 24 -54 1 -64 3
-58 16 4 8 8 41 8 72 0 81 -14 92 -119 96 -50 3 -92 -1 -105 -7 -20 -11 -21
-10 -21 53 0 60 -2 67 -27 83 -35 23 -120 26 -195 7 l-59 -15 -30 32 c-28 31
-32 32 -92 27 -35 -3 -80 -14 -102 -26 l-39 -20 -36 39 c-28 32 -43 40 -75 43
-42 3 -100 -19 -124 -48 -12 -14 -16 -13 -42 8 -21 18 -37 23 -56 20 -67 -12
-103 -26 -114 -45 -8 -17 -13 -18 -25 -8 -23 19 -107 -6 -174 -52 -61 -41
-134 -59 -218 -52 -64 5 -77 10 -64 26 6 7 9 22 7 32 -2 11 -4 25 -4 32 -2 20
-106 83 -138 83 -25 0 -32 5 -38 27 -10 43 -24 53 -71 53 -44 0 -44 0 -44 35
0 47 -33 68 -95 63 -41 -3 -46 -1 -41 15 5 22 -17 79 -38 96 -8 7 -23 12 -33
11 -35 -4 -38 0 -38 54 0 77 -26 110 -89 114 -31 2 -46 8 -46 17 0 18 -49 52
-80 56 -31 3 -109 -10 -133 -23 -14 -7 -19 -3 -27 17 -14 37 -35 55 -77 67
-20 5 -63 29 -96 51 -56 40 -63 42 -140 45 -70 2 -89 -1 -132 -21z"/>
</g>
</svg>
